<svg width="16" height="16" viewBox="0 0 16 16" fill="none" xmlns="http://www.w3.org/2000/svg">
<path fill-rule="evenodd" clip-rule="evenodd" d="M1.33337 2.00001C1.33337 1.63182 1.63185 1.33334 2.00004 1.33334H6.66671C7.0349 1.33334 7.33337 1.63182 7.33337 2.00001V6.66668C7.33337 7.03487 7.0349 7.33334 6.66671 7.33334H2.00004C1.63185 7.33334 1.33337 7.03487 1.33337 6.66668V2.00001ZM2.66671 2.66668V6.00001H6.00004V2.66668H2.66671Z" fill="black"/>
<path fill-rule="evenodd" clip-rule="evenodd" d="M8.66663 2.00001C8.66663 1.63182 8.9651 1.33334 9.33329 1.33334H14C14.3681 1.33334 14.6666 1.63182 14.6666 2.00001V6.66668C14.6666 7.03487 14.3681 7.33334 14 7.33334H9.33329C8.9651 7.33334 8.66663 7.03487 8.66663 6.66668V2.00001ZM9.99996 2.66668V6.00001H13.3333V2.66668H9.99996Z" fill="black"/>
<path fill-rule="evenodd" clip-rule="evenodd" d="M8.66663 9.33332C8.66663 8.96513 8.9651 8.66666 9.33329 8.66666H14C14.3681 8.66666 14.6666 8.96513 14.6666 9.33332V14C14.6666 14.3682 14.3681 14.6667 14 14.6667H9.33329C8.9651 14.6667 8.66663 14.3682 8.66663 14V9.33332ZM9.99996 9.99999V13.3333H13.3333V9.99999H9.99996Z" fill="black"/>
<path fill-rule="evenodd" clip-rule="evenodd" d="M1.33337 9.33332C1.33337 8.96513 1.63185 8.66666 2.00004 8.66666H6.66671C7.0349 8.66666 7.33337 8.96513 7.33337 9.33332V14C7.33337 14.3682 7.0349 14.6667 6.66671 14.6667H2.00004C1.63185 14.6667 1.33337 14.3682 1.33337 14V9.33332ZM2.66671 9.99999V13.3333H6.00004V9.99999H2.66671Z" fill="black"/>
</svg>
