<svg width="16" height="16" viewBox="0 0 16 16" fill="none" xmlns="http://www.w3.org/2000/svg">
<g clip-path="url(#clip0_117_204)">
<path fill-rule="evenodd" clip-rule="evenodd" d="M15.1382 0.861937C15.3985 1.12229 15.3985 1.5444 15.1382 1.80475L7.80482 9.13808C7.54447 9.39843 7.12236 9.39843 6.86201 9.13808C6.60166 8.87773 6.60166 8.45562 6.86201 8.19527L14.1953 0.861937C14.4557 0.601588 14.8778 0.601588 15.1382 0.861937Z" fill="#808A98"/>
<path fill-rule="evenodd" clip-rule="evenodd" d="M15.1382 0.861937C15.3192 1.04303 15.3806 1.31185 15.296 1.55358L10.6293 14.8869C10.539 15.1449 10.3004 15.3216 10.0273 15.3328C9.75414 15.3439 9.50189 15.1872 9.39088 14.9374L6.82835 9.17174L1.06266 6.60922C0.812872 6.4982 0.656163 6.24595 0.667306 5.97283C0.678448 5.69971 0.855184 5.46107 1.11318 5.37077L14.4465 0.704103C14.6882 0.619499 14.9571 0.680845 15.1382 0.861937ZM3.1408 6.07374L7.60418 8.05747C7.755 8.1245 7.87559 8.24509 7.94263 8.39592L9.92635 12.8593L13.5801 2.41999L3.1408 6.07374Z" fill="#808A98"/>
</g>
<defs>
<clipPath id="clip0_117_204">
<rect width="16" height="16" fill="white"/>
</clipPath>
</defs>
</svg>
