<svg width="24" height="23" viewBox="0 0 24 23" fill="none" xmlns="http://www.w3.org/2000/svg">
<g filter="url(#filter0_d_117_45)">
<path fill-rule="evenodd" clip-rule="evenodd" d="M4 2.00001C4 1.63182 4.29848 1.33334 4.66667 1.33334H14.6667C15.0349 1.33334 15.3333 1.63182 15.3333 2.00001V10.6667C15.3333 11.0349 15.0349 11.3333 14.6667 11.3333H4.66667C4.29848 11.3333 4 11.0349 4 10.6667V2.00001ZM5.33333 2.66668V10H14V2.66668H5.33333Z" fill="#808A98"/>
<path fill-rule="evenodd" clip-rule="evenodd" d="M14 5.33334C14 4.96515 14.2985 4.66668 14.6667 4.66668H17.3333C17.5101 4.66668 17.6797 4.73691 17.8047 4.86194L19.8047 6.86194C19.9298 6.98696 20 7.15653 20 7.33334V10.6667C20 11.0349 19.7015 11.3333 19.3333 11.3333H14.6667C14.2985 11.3333 14 11.0349 14 10.6667V5.33334ZM15.3333 6.00001V10H18.6667V7.60949L17.0572 6.00001H15.3333Z" fill="#808A98"/>
<path fill-rule="evenodd" clip-rule="evenodd" d="M7.66667 11.3333C7.11438 11.3333 6.66667 11.7811 6.66667 12.3333C6.66667 12.8856 7.11438 13.3333 7.66667 13.3333C8.21895 13.3333 8.66667 12.8856 8.66667 12.3333C8.66667 11.7811 8.21895 11.3333 7.66667 11.3333ZM5.33333 12.3333C5.33333 11.0447 6.378 10 7.66667 10C8.95533 10 10 11.0447 10 12.3333C10 13.622 8.95533 14.6667 7.66667 14.6667C6.378 14.6667 5.33333 13.622 5.33333 12.3333Z" fill="#808A98"/>
<path fill-rule="evenodd" clip-rule="evenodd" d="M16.3333 11.3333C15.781 11.3333 15.3333 11.7811 15.3333 12.3333C15.3333 12.8856 15.781 13.3333 16.3333 13.3333C16.8856 13.3333 17.3333 12.8856 17.3333 12.3333C17.3333 11.7811 16.8856 11.3333 16.3333 11.3333ZM14 12.3333C14 11.0447 15.0447 10 16.3333 10C17.622 10 18.6667 11.0447 18.6667 12.3333C18.6667 13.622 17.622 14.6667 16.3333 14.6667C15.0447 14.6667 14 13.622 14 12.3333Z" fill="#808A98"/>
</g>
<defs>
<filter id="filter0_d_117_45" x="0" y="0" width="24" height="24" filterUnits="userSpaceOnUse" color-interpolation-filters="sRGB">
<feFlood flood-opacity="0" result="BackgroundImageFix"/>
<feColorMatrix in="SourceAlpha" type="matrix" values="0 0 0 0 0 0 0 0 0 0 0 0 0 0 0 0 0 0 127 0" result="hardAlpha"/>
<feOffset dy="4"/>
<feGaussianBlur stdDeviation="2"/>
<feComposite in2="hardAlpha" operator="out"/>
<feColorMatrix type="matrix" values="0 0 0 0 0 0 0 0 0 0 0 0 0 0 0 0 0 0 0.25 0"/>
<feBlend mode="normal" in2="BackgroundImageFix" result="effect1_dropShadow_117_45"/>
<feBlend mode="normal" in="SourceGraphic" in2="effect1_dropShadow_117_45" result="shape"/>
</filter>
</defs>
</svg>
